<?xml version="1.0" encoding="iso-8859-1"?>
<!-- Generator: Adobe Illustrator 19.0.0, SVG Export Plug-In . SVG Version: 6.00 Build 0)  -->
<svg version="1.1" id="Capa_1" xmlns="http://www.w3.org/2000/svg" xmlns:xlink="http://www.w3.org/1999/xlink" x="0px" y="0px"
	 viewBox="0 0 477.867 477.867" style="enable-background:new 0 0 477.867 477.867;" xml:space="preserve">
<g>
	<g>
		<path d="M238.933,0C106.974,0,0,106.974,0,238.933s106.974,238.933,238.933,238.933s238.933-106.974,238.933-238.933
			C477.726,107.033,370.834,0.141,238.933,0z M238.933,443.733c-113.108,0-204.8-91.692-204.8-204.8s91.692-204.8,204.8-204.8
			s204.8,91.692,204.8,204.8C443.611,351.991,351.991,443.611,238.933,443.733z"/>
	</g>
</g>
	<g>
	<g>
		<path d="M238.933,85.333c-84.831,0-153.6,68.769-153.6,153.6s68.769,153.6,153.6,153.6s153.6-68.769,153.6-153.6
			C392.43,154.145,323.721,85.437,238.933,85.333z M238.933,358.4c-65.98,0-119.467-53.487-119.467-119.467
			s53.487-119.467,119.467-119.467S358.4,172.954,358.4,238.933C358.325,304.882,304.882,358.325,238.933,358.4z"/>
	</g>
</g>
</svg>