<?xml version="1.0" encoding="UTF-8"?>
<svg xmlns="http://www.w3.org/2000/svg" viewBox="0 0 512 512" width="512" height="512"><g id="outline"><path d="M442.472,264.329a61.27,61.27,0,1,0-82.076,0,57.467,57.467,0,0,0-13.918,2.794,65.39,65.39,0,0,0-46.267-21.2,69.394,69.394,0,1,0-88.422,0,65.394,65.394,0,0,0-46.272,21.207,57.4,57.4,0,0,0-13.915-2.8,61.269,61.269,0,1,0-82.074,0A58,58,0,0,0,16,322.083V392a8,8,0,0,0,8,8H488a8,8,0,0,0,8-8V322.083A58,58,0,0,0,442.472,264.329ZM65.294,218.874a45.27,45.27,0,1,1,45.269,45.27A45.321,45.321,0,0,1,65.294,218.874Zm82.941,92.547V384H71.952V338.73a8,8,0,0,0-16,0V384H32V322.083a41.987,41.987,0,0,1,41.94-41.939h73.246a42.127,42.127,0,0,1,8.553.873A65.141,65.141,0,0,0,148.235,311.421Zm54.371-118.95A53.394,53.394,0,1,1,256,245.864,53.455,53.455,0,0,1,202.606,192.471ZM347.765,384H317.72V330.606a8,8,0,0,0-16,0V384H210.28V330.606a8,8,0,0,0-16,0V384H164.235V311.421a49.614,49.614,0,0,1,49.557-49.557h84.416a49.614,49.614,0,0,1,49.557,49.557Zm8.4-165.126a45.27,45.27,0,1,1,45.27,45.27A45.321,45.321,0,0,1,356.167,218.874ZM480,384H456.048V338.73a8,8,0,0,0-16,0V384H363.765V311.421a65.139,65.139,0,0,0-7.5-30.4,42.138,42.138,0,0,1,8.55-.879H438.06A41.987,41.987,0,0,1,480,322.083Z"/></g></svg>
